REM DIRINDEX 1\3,1\4,1\5,1\6,1\2\7,1\2\8,1\2\9,1\10
REM DIRNAME folder01,folder02,folder03,folder04,folder05,folder06,folder07,folder08,folder09,folder10
TITLE ""
FILE "2-02 Level 4-538-549.mp3" MP3
  TRACK 01 AUDIO
    TITLE "0:"
    INDEX 01 00:00:00
  TRACK 02 AUDIO
    TITLE "7:cjc056_1885"
    INDEX 01 00:00:07
  TRACK 03 AUDIO
    TITLE "0:"
    INDEX 01 00:01:17
  TRACK 04 AUDIO
    TITLE "8:cjc056_1886"
    INDEX 01 00:01:28
  TRACK 05 AUDIO
    TITLE "0:"
    INDEX 01 00:02:34
  TRACK 06 AUDIO
    TITLE "9:cjc056_1887"
    INDEX 01 00:02:43
  TRACK 07 AUDIO
    TITLE "0:"
    INDEX 01 00:05:12
  TRACK 08 AUDIO
    TITLE "7:cjc056_1888"
    INDEX 01 00:05:63
  TRACK 09 AUDIO
    TITLE "0:"
    INDEX 01 00:06:67
  TRACK 10 AUDIO
    TITLE "8:cjc056_1889"
    INDEX 01 00:07:07
  TRACK 11 AUDIO
    TITLE "0:"
    INDEX 01 00:08:34
  TRACK 12 AUDIO
    TITLE "9:cjc056_1890"
    INDEX 01 00:08:46
  TRACK 13 AUDIO
    TITLE "0:"
    INDEX 01 00:10:23
  TRACK 14 AUDIO
    TITLE "7:cjc056_1891"
    INDEX 01 00:10:74
  TRACK 15 AUDIO
    TITLE "0:"
    INDEX 01 00:11:72
  TRACK 16 AUDIO
    TITLE "8:cjc056_1892"
    INDEX 01 00:12:12
  TRACK 17 AUDIO
    TITLE "0:"
    INDEX 01 00:13:33
  TRACK 18 AUDIO
    TITLE "9:cjc056_1893"
    INDEX 01 00:13:41
  TRACK 19 AUDIO
    TITLE "0:"
    INDEX 01 00:15:54
  TRACK 20 AUDIO
    TITLE "7:cjc056_1894"
    INDEX 01 00:16:32
  TRACK 21 AUDIO
    TITLE "0:"
    INDEX 01 00:17:31
  TRACK 22 AUDIO
    TITLE "8:cjc056_1895"
    INDEX 01 00:17:45
  TRACK 23 AUDIO
    TITLE "0:"
    INDEX 01 00:19:16
  TRACK 24 AUDIO
    TITLE "9:cjc056_1896"
    INDEX 01 00:19:30
  TRACK 25 AUDIO
    TITLE "0:"
    INDEX 01 00:21:60
  TRACK 26 AUDIO
    TITLE "7:cjc056_1897"
    INDEX 01 00:22:36
  TRACK 27 AUDIO
    TITLE "0:"
    INDEX 01 00:23:20
  TRACK 28 AUDIO
    TITLE "8:cjc056_1898"
    INDEX 01 00:23:44
  TRACK 29 AUDIO
    TITLE "0:"
    INDEX 01 00:25:03
  TRACK 30 AUDIO
    TITLE "9:cjc056_1899"
    INDEX 01 00:25:17
  TRACK 31 AUDIO
    TITLE "0:"
    INDEX 01 00:27:26
  TRACK 32 AUDIO
    TITLE "7:cjc056_1900"
    INDEX 01 00:28:02
  TRACK 33 AUDIO
    TITLE "0:"
    INDEX 01 00:28:66
  TRACK 34 AUDIO
    TITLE "8:cjc056_1901"
    INDEX 01 00:29:07
  TRACK 35 AUDIO
    TITLE "0:"
    INDEX 01 00:30:44
  TRACK 36 AUDIO
    TITLE "9:cjc056_1902"
    INDEX 01 00:30:57
  TRACK 37 AUDIO
    TITLE "0:"
    INDEX 01 00:32:13
  TRACK 38 AUDIO
    TITLE "7:cjc056_1903"
    INDEX 01 00:32:64
  TRACK 39 AUDIO
    TITLE "0:"
    INDEX 01 00:33:69
  TRACK 40 AUDIO
    TITLE "8:cjc056_1904"
    INDEX 01 00:34:06
  TRACK 41 AUDIO
    TITLE "0:"
    INDEX 01 00:35:25
  TRACK 42 AUDIO
    TITLE "9:cjc056_1905"
    INDEX 01 00:35:39
  TRACK 43 AUDIO
    TITLE "0:"
    INDEX 01 00:37:32
  TRACK 44 AUDIO
    TITLE "7:cjc056_1906"
    INDEX 01 00:38:10
  TRACK 45 AUDIO
    TITLE "0:"
    INDEX 01 00:39:13
  TRACK 46 AUDIO
    TITLE "8:cjc056_1907"
    INDEX 01 00:39:25
  TRACK 47 AUDIO
    TITLE "0:"
    INDEX 01 00:40:46
  TRACK 48 AUDIO
    TITLE "9:cjc056_1908"
    INDEX 01 00:40:60
  TRACK 49 AUDIO
    TITLE "0:"
    INDEX 01 00:42:37
  TRACK 50 AUDIO
    TITLE "7:cjc056_1909"
    INDEX 01 00:43:15
  TRACK 51 AUDIO
    TITLE "0:"
    INDEX 01 00:44:24
  TRACK 52 AUDIO
    TITLE "8:cjc056_1910"
    INDEX 01 00:44:38
  TRACK 53 AUDIO
    TITLE "0:"
    INDEX 01 00:45:59
  TRACK 54 AUDIO
    TITLE "9:cjc056_1911"
    INDEX 01 00:45:71
  TRACK 55 AUDIO
    TITLE "0:"
    INDEX 01 00:47:50
  TRACK 56 AUDIO
    TITLE "7:cjc056_1912"
    INDEX 01 00:48:28
  TRACK 57 AUDIO
    TITLE "0:"
    INDEX 01 00:49:31
  TRACK 58 AUDIO
    TITLE "8:cjc056_1913"
    INDEX 01 00:49:45
  TRACK 59 AUDIO
    TITLE "0:"
    INDEX 01 00:51:01
  TRACK 60 AUDIO
    TITLE "9:cjc056_1914"
    INDEX 01 00:51:15
  TRACK 61 AUDIO
    TITLE "0:"
    INDEX 01 00:52:71
  TRACK 62 AUDIO
    TITLE "7:cjc056_1915"
    INDEX 01 00:53:47
  TRACK 63 AUDIO
    TITLE "0:"
    INDEX 01 00:54:64
  TRACK 64 AUDIO
    TITLE "8:cjc056_1916"
    INDEX 01 00:55:03
  TRACK 65 AUDIO
    TITLE "0:"
    INDEX 01 00:56:20
  TRACK 66 AUDIO
    TITLE "9:cjc056_1917"
    INDEX 01 00:56:35
  TRACK 67 AUDIO
    TITLE "0:"
    INDEX 01 00:58:36
  TRACK 68 AUDIO
    TITLE "8:cjc056_1918"
    INDEX 01 00:58:56
  TRACK 69 AUDIO
    TITLE "0:"
    INDEX 01 00:59:69
  TRACK 70 AUDIO
    TITLE "9:cjc056_1919"
    INDEX 01 01:00:08
  TRACK 71 AUDIO
    TITLE "0:"
    INDEX 01 01:01:44
  TRACK 72 AUDIO
    TITLE "7:cjc056_1920"
    INDEX 01 01:02:22
  TRACK 73 AUDIO
    TITLE "0:"
    INDEX 01 01:03:41
  TRACK 74 AUDIO
    TITLE "8:cjc056_1921"
    INDEX 01 01:03:55
  TRACK 75 AUDIO
    TITLE "0:"
    INDEX 01 01:04:70
  TRACK 76 AUDIO
    TITLE "9:cjc056_1922"
    INDEX 01 01:05:09
  TRACK 77 AUDIO
    TITLE "0:"
    INDEX 01 01:07:14
